<?xml version="1.0" encoding="utf-8"?>
<!-- Generator: Adobe Illustrator 14.0.0, SVG Export Plug-In . SVG Version: 6.00 Build 43363)  -->
<!DOCTYPE svg PUBLIC "-//W3C//DTD SVG 1.1//EN" "http://www.w3.org/Graphics/SVG/1.1/DTD/svg11.dtd">
<svg version="1.1" id="Ebene_1" xmlns="http://www.w3.org/2000/svg" xmlns:xlink="http://www.w3.org/1999/xlink" x="0px" y="0px"
	 width="250px" viewBox="0 0 104.367 66.064" enable-background="new 0 0 104.367 66.064"
	 xml:space="preserve">
<g>
	<path fill="#B19C35" d="M36.323,31.102c0,2.891-0.79,4.928-2.366,6.111c-1.392,1.043-3.643,1.562-6.75,1.562H10.438v-15.49h17.535
		C33.54,23.286,36.323,25.891,36.323,31.102 M46.76,31.102c0-4.596-1.161-8.244-3.479-10.943c-2.783-3.221-7.005-4.832-12.664-4.832
		H0v50.738h10.438v-19.33h20.318c5.241,0,9.3-1.635,12.177-4.902C45.483,38.944,46.76,35.366,46.76,31.102"/>
	<path fill="#9C9E9F" d="M80.513,38.34v7.537h13.688c-1.717,8.434-7.297,12.648-16.739,12.648c-4.743,0-8.605-1.32-11.589-3.969
		c-3.479-3.051-5.217-7.559-5.217-13.525c0-12.113,5.783-18.168,17.348-18.168c3.524,0,6.528,0.74,9.016,2.221
		c2.799,1.615,4.63,3.969,5.488,7.064h10.979c-0.543-4.844-3.051-8.836-7.522-11.977c-4.655-3.23-10.55-4.846-17.688-4.846
		c-9.31,0-16.471,2.535-21.485,7.604c-4.472,4.533-6.709,10.453-6.709,17.766c0,7.357,2.191,13.279,6.574,17.764
		c4.97,5.07,12.266,7.605,21.89,7.605c3.796,0,7.319-0.674,10.571-2.02c3.254-1.346,5.874-3.207,7.862-5.586l1.423,6.258h5.964
		V38.34H80.513z"/>
	<path fill="#9C9E9F" d="M97.229,0.214h1.198v3.873h4.743V0.214h1.196v9.005h-1.196v-4.15h-4.743v4.15h-1.198V0.214z M89.612,0.214
		h1.072v3.369h0.024c0.176-0.363,0.455-0.625,0.831-0.789c0.38-0.165,0.794-0.246,1.25-0.246c0.504,0,0.943,0.092,1.319,0.277
		c0.372,0.185,0.685,0.435,0.931,0.75c0.248,0.316,0.436,0.679,0.563,1.091c0.124,0.412,0.188,0.85,0.188,1.312
		s-0.061,0.899-0.182,1.312c-0.122,0.412-0.31,0.77-0.556,1.076C94.806,8.675,94.493,8.917,94.12,9.1
		c-0.375,0.181-0.809,0.271-1.306,0.271c-0.168,0-0.35-0.019-0.541-0.05c-0.193-0.035-0.387-0.091-0.581-0.171
		c-0.193-0.079-0.377-0.185-0.549-0.315c-0.173-0.13-0.317-0.293-0.435-0.487h-0.024v0.871h-1.072V0.214z M94.537,5.013
		c-0.081-0.291-0.203-0.549-0.367-0.776c-0.162-0.227-0.373-0.407-0.63-0.542c-0.256-0.134-0.557-0.202-0.902-0.202
		c-0.361,0-0.667,0.072-0.919,0.215c-0.254,0.143-0.46,0.33-0.618,0.561c-0.16,0.233-0.276,0.495-0.347,0.789
		c-0.072,0.295-0.108,0.591-0.108,0.895c0,0.319,0.039,0.628,0.114,0.928c0.074,0.298,0.194,0.561,0.359,0.788
		c0.163,0.229,0.376,0.41,0.636,0.549c0.262,0.139,0.576,0.208,0.946,0.208c0.361,0,0.668-0.072,0.922-0.214
		c0.252-0.143,0.453-0.334,0.604-0.568c0.15-0.236,0.26-0.506,0.326-0.807c0.069-0.303,0.102-0.614,0.102-0.935
		C94.655,5.6,94.614,5.303,94.537,5.013 M78.814,2.698h1.009v0.96h0.025c0.489-0.74,1.191-1.11,2.107-1.11
		c0.403,0,0.769,0.083,1.097,0.251c0.328,0.169,0.56,0.454,0.695,0.858c0.218-0.354,0.509-0.626,0.87-0.82
		c0.359-0.193,0.751-0.29,1.173-0.29c0.327,0,0.624,0.036,0.889,0.107c0.265,0.072,0.491,0.183,0.681,0.333
		c0.189,0.152,0.335,0.347,0.441,0.587c0.105,0.24,0.157,0.527,0.157,0.864v4.78h-1.072V4.943c0-0.201-0.016-0.39-0.05-0.566
		c-0.034-0.178-0.097-0.331-0.19-0.461c-0.091-0.13-0.22-0.234-0.384-0.309c-0.165-0.075-0.376-0.114-0.637-0.114
		c-0.522,0-0.936,0.152-1.242,0.455c-0.307,0.302-0.461,0.705-0.461,1.209v4.062h-1.071V4.943c0-0.211-0.02-0.404-0.058-0.581
		c-0.037-0.175-0.103-0.33-0.196-0.459c-0.091-0.13-0.218-0.231-0.376-0.304c-0.16-0.071-0.358-0.107-0.594-0.107
		c-0.319,0-0.588,0.063-0.808,0.189c-0.217,0.125-0.396,0.277-0.536,0.455c-0.139,0.176-0.24,0.36-0.302,0.548
		c-0.063,0.189-0.096,0.347-0.096,0.472v4.062h-1.072V2.698z M76.154,8.097c-0.175,0.235-0.376,0.438-0.6,0.605
		c-0.222,0.169-0.46,0.308-0.711,0.416c-0.253,0.108-0.515,0.189-0.783,0.239c-0.27,0.05-0.535,0.076-0.795,0.076
		c-0.671,0-1.274-0.125-1.804-0.377c-0.529-0.254-0.979-0.589-1.35-1.01c-0.37-0.42-0.65-0.903-0.844-1.449
		c-0.194-0.548-0.292-1.114-0.292-1.704c0-0.656,0.091-1.28,0.273-1.873c0.181-0.592,0.45-1.111,0.807-1.558
		c0.357-0.445,0.804-0.801,1.336-1.065C71.928,0.133,72.552,0,73.266,0c0.488,0,0.948,0.056,1.381,0.169
		c0.434,0.114,0.819,0.293,1.162,0.536c0.34,0.244,0.624,0.554,0.855,0.928c0.231,0.375,0.391,0.827,0.474,1.355h-1.199
		c-0.058-0.339-0.167-0.639-0.326-0.893C75.45,1.839,75.254,1.63,75.02,1.47c-0.235-0.162-0.503-0.283-0.801-0.364
		c-0.299-0.083-0.618-0.122-0.953-0.122c-0.547,0-1.015,0.108-1.405,0.33c-0.392,0.221-0.711,0.51-0.959,0.87
		c-0.249,0.36-0.431,0.771-0.549,1.231c-0.117,0.462-0.176,0.934-0.176,1.416c0,0.474,0.066,0.93,0.203,1.366
		c0.133,0.435,0.332,0.821,0.592,1.155c0.26,0.334,0.581,0.603,0.965,0.8c0.382,0.2,0.825,0.299,1.33,0.299
		c0.464,0,0.878-0.077,1.242-0.231c0.367-0.153,0.677-0.365,0.928-0.636c0.252-0.27,0.439-0.585,0.562-0.949
		c0.121-0.364,0.173-0.754,0.157-1.173H73.28V4.477h3.944v4.742h-0.756L76.154,8.097z"/>
</g>
</svg>
