<?xml version="1.0" encoding="utf-8"?>
<!-- Generator: Adobe Illustrator 14.0.0, SVG Export Plug-In . SVG Version: 6.00 Build 43363)  -->
<!DOCTYPE svg PUBLIC "-//W3C//DTD SVG 1.1//EN" "http://www.w3.org/Graphics/SVG/1.1/DTD/svg11.dtd">
<svg version="1.1" id="Ebene_1" xmlns="http://www.w3.org/2000/svg" xmlns:xlink="http://www.w3.org/1999/xlink" x="0px" y="0px"
	 width="250px" viewBox="0 0 343.458 167.377" enable-background="new 0 0 343.458 167.377"
	 xml:space="preserve">
<g>
	<path fill="#B19C35" d="M119.531,52.042c0,9.534-2.598,16.255-7.786,20.16c-4.58,3.439-11.986,5.157-22.212,5.157H34.348V26.255
		h57.705C110.372,26.255,119.531,34.852,119.531,52.042 M153.879,52.042c0-15.157-3.818-27.194-11.45-36.102
		C133.271,5.314,119.377,0,100.754,0H0v167.377h34.348v-63.762h66.864c17.249,0,30.606-5.393,40.073-16.176
		C149.679,77.909,153.879,66.106,153.879,52.042"/>
	<path fill="#9C9E9F" d="M264.955,75.919v24.863h45.051c-5.652,27.824-24.014,41.732-55.088,41.732
		c-15.611,0-28.324-4.362-38.137-13.097c-11.451-10.062-17.174-24.936-17.174-44.619c0-39.957,19.031-59.937,57.095-59.937
		c11.598,0,21.483,2.441,29.663,7.325c9.217,5.328,15.238,13.098,18.064,23.309h36.13c-1.784-15.982-10.036-29.153-24.755-39.514
		C300.488,5.327,281.085,0,257.595,0c-30.632,0-54.197,8.362-70.701,25.084c-14.719,14.95-22.079,34.484-22.079,58.604
		c0,24.273,7.21,43.808,21.634,58.604c16.354,16.726,40.367,25.084,72.037,25.084c12.489,0,24.087-2.22,34.793-6.659
		c10.704-4.439,19.326-10.579,25.869-18.425l4.685,20.645h19.626V75.919H264.955z"/>
	<path fill="#9C9E9F" d="M339.031,69.187h1.802c0.512,0,0.88-0.091,1.104-0.272s0.336-0.454,0.336-0.817
		c0-0.236-0.037-0.426-0.113-0.569c-0.075-0.144-0.18-0.253-0.312-0.33c-0.133-0.076-0.287-0.126-0.46-0.148
		c-0.174-0.021-0.358-0.032-0.555-0.032h-1.802V69.187z M338.13,66.276h2.456c0.151,0,0.31,0.002,0.474,0.005
		c0.164,0.004,0.327,0.013,0.488,0.028c0.162,0.017,0.314,0.04,0.46,0.071s0.269,0.078,0.37,0.142
		c0.221,0.132,0.408,0.317,0.564,0.554c0.154,0.236,0.231,0.521,0.231,0.855c0,0.359-0.089,0.67-0.265,0.932
		c-0.178,0.262-0.424,0.455-0.74,0.582v0.019c0.417,0.089,0.736,0.278,0.958,0.57c0.221,0.29,0.331,0.646,0.331,1.063
		c0,0.247-0.045,0.487-0.133,0.722s-0.219,0.441-0.393,0.622c-0.175,0.181-0.389,0.326-0.645,0.437
		c-0.257,0.111-0.553,0.167-0.888,0.167h-3.271V66.276z M339.031,72.306h2.257c0.392,0,0.701-0.111,0.929-0.333
		c0.229-0.222,0.342-0.521,0.342-0.9c0-0.225-0.041-0.411-0.123-0.559s-0.191-0.265-0.327-0.352
		c-0.137-0.087-0.292-0.148-0.47-0.184c-0.177-0.035-0.36-0.053-0.549-0.053h-2.059V72.306z M332.337,66.276h4.674v0.74h-3.771v2.17
		h3.517v0.739h-3.517v2.38h3.801v0.739h-4.703V66.276z M329.921,66.276h0.9v6.769h-0.9V66.276z M323.388,66.276h3.186
		c0.639,0,1.142,0.16,1.508,0.479c0.366,0.32,0.551,0.753,0.551,1.298c0,0.412-0.095,0.773-0.281,1.084
		c-0.186,0.311-0.485,0.521-0.896,0.637v0.019c0.197,0.038,0.356,0.101,0.479,0.189c0.124,0.088,0.224,0.193,0.3,0.316
		c0.075,0.123,0.129,0.26,0.16,0.411c0.032,0.151,0.057,0.309,0.076,0.473c0.013,0.164,0.023,0.332,0.033,0.506
		c0.009,0.173,0.025,0.34,0.047,0.501c0.022,0.16,0.057,0.314,0.105,0.463c0.047,0.148,0.117,0.278,0.213,0.393h-1.006
		c-0.062-0.07-0.105-0.165-0.127-0.285c-0.022-0.119-0.037-0.254-0.043-0.402s-0.013-0.309-0.019-0.479
		c-0.007-0.171-0.025-0.338-0.058-0.502c-0.025-0.165-0.057-0.321-0.096-0.47c-0.037-0.148-0.098-0.278-0.18-0.39
		c-0.082-0.109-0.19-0.198-0.326-0.265c-0.137-0.066-0.312-0.1-0.526-0.1h-2.2v2.892h-0.9V66.276z M326.166,69.414
		c0.21,0,0.408-0.016,0.598-0.049c0.189-0.031,0.355-0.094,0.498-0.188c0.143-0.093,0.256-0.218,0.342-0.375
		c0.085-0.157,0.128-0.361,0.128-0.611c0-0.341-0.095-0.621-0.284-0.843c-0.19-0.222-0.498-0.332-0.92-0.332h-2.238v2.397H326.166z
		 M319.482,67.017h-2.256v-0.74h5.413v0.74h-2.257v6.028h-0.9V67.017z M312.154,66.276h4.674v0.74h-3.773v2.17h3.518v0.739h-3.518
		v2.38h3.802v0.739h-4.702V66.276z M306.56,69.187h1.802c0.513,0,0.88-0.091,1.104-0.272s0.336-0.454,0.336-0.817
		c0-0.236-0.037-0.426-0.113-0.569c-0.075-0.144-0.18-0.253-0.312-0.33c-0.133-0.076-0.286-0.126-0.46-0.148
		c-0.175-0.021-0.359-0.032-0.555-0.032h-1.802V69.187z M305.661,66.276h2.454c0.152,0,0.31,0.002,0.475,0.005
		c0.164,0.004,0.327,0.013,0.488,0.028c0.162,0.017,0.314,0.04,0.46,0.071s0.269,0.078,0.37,0.142
		c0.221,0.132,0.409,0.317,0.563,0.554c0.155,0.236,0.233,0.521,0.233,0.855c0,0.359-0.09,0.67-0.267,0.932
		s-0.423,0.455-0.739,0.582v0.019c0.416,0.089,0.736,0.278,0.957,0.57c0.222,0.29,0.332,0.646,0.332,1.063
		c0,0.247-0.044,0.487-0.132,0.722c-0.089,0.234-0.22,0.441-0.395,0.622c-0.174,0.181-0.388,0.326-0.645,0.437
		c-0.256,0.111-0.552,0.167-0.886,0.167h-3.271V66.276z M306.56,72.306h2.256c0.393,0,0.703-0.111,0.93-0.333
		c0.229-0.222,0.342-0.521,0.342-0.9c0-0.225-0.041-0.411-0.123-0.559s-0.191-0.265-0.327-0.352s-0.292-0.148-0.47-0.184
		c-0.177-0.035-0.359-0.053-0.549-0.053h-2.059V72.306z M299.166,66.276h3.186c0.639,0,1.141,0.16,1.508,0.479
		c0.365,0.32,0.55,0.753,0.55,1.298c0,0.412-0.095,0.773-0.28,1.084s-0.484,0.521-0.896,0.637v0.019
		c0.196,0.038,0.356,0.101,0.478,0.189c0.124,0.088,0.224,0.193,0.3,0.316c0.075,0.123,0.13,0.26,0.161,0.411
		s0.057,0.309,0.076,0.473c0.012,0.164,0.023,0.332,0.033,0.506c0.01,0.173,0.025,0.34,0.047,0.501
		c0.021,0.16,0.058,0.314,0.104,0.463c0.048,0.148,0.118,0.278,0.213,0.393h-1.005c-0.062-0.07-0.105-0.165-0.127-0.285
		c-0.023-0.119-0.037-0.254-0.043-0.402s-0.014-0.309-0.02-0.479c-0.006-0.171-0.025-0.338-0.057-0.502
		c-0.025-0.165-0.057-0.321-0.095-0.47s-0.098-0.278-0.18-0.39c-0.083-0.109-0.192-0.198-0.327-0.265
		c-0.137-0.066-0.312-0.1-0.527-0.1h-2.199v2.892h-0.9V66.276z M301.944,69.414c0.208,0,0.407-0.016,0.597-0.049
		c0.189-0.031,0.355-0.094,0.498-0.188c0.143-0.093,0.256-0.218,0.342-0.375s0.127-0.361,0.127-0.611
		c0-0.341-0.095-0.621-0.284-0.843c-0.188-0.222-0.496-0.332-0.919-0.332h-2.238v2.397H301.944z M293.373,66.276h4.675v0.74h-3.773
		v2.17h3.517v0.739h-3.517v2.38h3.802v0.739h-4.703V66.276z M289.466,67.017h-2.256v-0.74h5.414v0.74h-2.257v6.028h-0.901V67.017z
		 M285.704,68.258c-0.052-0.493-0.226-0.851-0.526-1.071c-0.301-0.222-0.685-0.331-1.152-0.331c-0.189,0-0.375,0.019-0.559,0.057
		s-0.346,0.103-0.488,0.191s-0.257,0.209-0.342,0.358s-0.128,0.336-0.128,0.559c0,0.211,0.062,0.382,0.185,0.512
		c0.123,0.131,0.287,0.238,0.493,0.32c0.205,0.083,0.438,0.151,0.697,0.206c0.259,0.054,0.524,0.112,0.796,0.176
		c0.271,0.062,0.537,0.137,0.797,0.223c0.259,0.085,0.489,0.2,0.691,0.346c0.203,0.146,0.365,0.33,0.488,0.555
		s0.186,0.501,0.186,0.829c0,0.36-0.08,0.668-0.242,0.924c-0.161,0.257-0.367,0.465-0.621,0.626
		c-0.253,0.161-0.535,0.279-0.848,0.355c-0.312,0.075-0.625,0.113-0.934,0.113c-0.38,0-0.738-0.047-1.076-0.142
		s-0.636-0.24-0.893-0.436c-0.255-0.196-0.457-0.444-0.605-0.745c-0.148-0.3-0.224-0.655-0.224-1.065h0.854
		c0,0.287,0.055,0.535,0.164,0.742c0.111,0.208,0.257,0.38,0.438,0.514c0.18,0.134,0.388,0.233,0.625,0.297
		c0.236,0.064,0.485,0.096,0.744,0.096c0.202,0,0.406-0.019,0.611-0.057c0.206-0.039,0.391-0.104,0.555-0.196
		c0.164-0.092,0.298-0.218,0.398-0.377s0.151-0.363,0.151-0.611c0-0.236-0.062-0.427-0.185-0.573s-0.285-0.266-0.488-0.358
		c-0.202-0.092-0.434-0.168-0.692-0.229s-0.524-0.12-0.796-0.177s-0.537-0.124-0.797-0.203c-0.259-0.079-0.491-0.185-0.695-0.317
		c-0.206-0.133-0.37-0.3-0.493-0.503c-0.124-0.202-0.187-0.458-0.187-0.768c0-0.341,0.07-0.637,0.21-0.886
		c0.139-0.25,0.323-0.456,0.554-0.617c0.231-0.161,0.494-0.28,0.787-0.359c0.295-0.079,0.596-0.119,0.906-0.119
		c0.347,0,0.67,0.041,0.967,0.123c0.296,0.082,0.555,0.213,0.776,0.389c0.222,0.178,0.399,0.4,0.532,0.669
		c0.132,0.269,0.204,0.589,0.217,0.962H285.704z M279.371,66.276h0.9v6.769h-0.9V66.276z M273.54,66.276h4.674v0.74h-3.772v2.17
		h3.517v0.739h-3.517v2.38h3.803v0.739h-4.704V66.276z M265.301,66.276h1.232l2.134,5.688l2.143-5.688h1.232v6.769h-0.854v-5.631
		h-0.02l-2.114,5.631h-0.767l-2.115-5.631h-0.02v5.631h-0.853V66.276z"/>
</g>
</svg>
